<svg width="1918" height="1918" viewBox="0 0 1918 1918" fill="none" xmlns="http://www.w3.org/2000/svg">
<path d="M1122.5 958C1122.5 1050.51 1047.95 1125.5 956 1125.5C864.047 1125.5 789.5 1050.51 789.5 958C789.5 865.489 864.047 790.5 956 790.5C1047.95 790.5 1122.5 865.489 1122.5 958Z" stroke="white"/>
<path d="M1012.5 958.5C1012.5 989.42 986.989 1014.5 955.5 1014.5C924.011 1014.5 898.5 989.42 898.5 958.5C898.5 927.58 924.011 902.5 955.5 902.5C986.989 902.5 1012.5 927.58 1012.5 958.5Z" stroke="white"/>
<circle cx="960" cy="958" r="280.5" stroke="white"/>
<path d="M1350.5 958C1350.5 1175.32 1173.88 1351.5 956 1351.5C738.122 1351.5 561.5 1175.32 561.5 958C561.5 740.677 738.122 564.5 956 564.5C1173.88 564.5 1350.5 740.677 1350.5 958Z" stroke="white"/>
<circle cx="956" cy="959" r="522.5" stroke="white"/>
<path d="M1612.5 959C1612.5 1321.57 1318.35 1615.5 955.5 1615.5C592.649 1615.5 298.5 1321.57 298.5 959C298.5 596.425 592.649 302.5 955.5 302.5C1318.35 302.5 1612.5 596.425 1612.5 959Z" stroke="white"/>
<circle cx="959" cy="959" r="796.5" stroke="white"/>
<circle cx="959" cy="959" r="958.5" stroke="white"/>
</svg>
