<svg width="543" height="202" viewBox="0 0 543 202" fill="none" xmlns="http://www.w3.org/2000/svg">
<g clip-path="url(#clip0_71_2)">
<path d="M24.7544 55.4129H14.7158V98.1437H0V0.914062H14.7158V39.8745H24.7544V0.914062H39.4702V98.2579H24.7544V55.4129Z" fill="white"/>
<path d="M64.7948 99.2862H61.9429C50.1931 99.2862 43.9189 92.888 43.9189 80.8914V61.3541H58.5206V78.3778C58.5206 82.8337 60.0036 85.233 63.3118 85.233C66.8481 85.233 68.103 82.8337 68.103 76.8925V74.7217C68.103 67.7523 67.4185 65.3529 62.057 58.3835L52.8168 46.1584C46.5427 38.0464 44.7175 31.7624 44.7175 22.0509V18.9661C44.7175 6.05543 51.2198 0 62.8555 0H65.5933C77.6853 0 82.4765 5.36991 82.4765 16.9095V32.905H68.2171V18.8518C68.2171 15.5385 67.5326 13.1391 63.9963 13.1391C60.4599 13.1391 59.6614 15.31 59.6614 19.9943V21.8224C59.6614 27.3066 60.6881 30.2771 65.7074 36.7896L75.0616 48.9005C81.678 57.5837 83.8454 62.4966 83.8454 73.4649V76.5498C83.8454 90.8314 77.6853 99.2862 64.7948 99.2862Z" fill="white"/>
<path d="M121.605 0.914062V15.0815H102.782V40.56H117.498V55.2987H102.782V83.405H122.403V98.1437H88.0664V0.914062H121.605Z" fill="white"/>
<path d="M162.215 79.8632H151.492L149.553 98.1437H136.32L148.184 0.799805H165.638L178.3 98.1437H164.041L162.215 79.8632ZM160.618 65.353L156.74 29.3632L152.975 65.353H160.618Z" fill="white"/>
<path d="M195.525 98.2579H180.81V0.914062H204.765C214.576 0.914062 219.481 5.14144 219.481 15.9955V33.2478C219.481 41.3598 215.717 44.4446 213.093 45.7014C216.401 47.1867 219.481 49.8145 219.481 56.327V90.4887C219.481 94.3733 220.28 96.2014 220.964 97.6867V98.3722H206.363C205.678 97.3439 204.88 95.6301 204.88 90.3745V60.8971C204.88 56.5555 204.081 54.7274 199.404 54.7274H195.639L195.525 98.2579ZM195.525 40.9027H199.404C203.511 40.9027 204.765 38.2749 204.765 33.9333V20.3371C204.765 16.1098 203.853 14.0532 199.404 14.0532H195.525V40.9027Z" fill="white"/>
<path d="M249.256 14.9672V98.1437H234.654V14.9672H222.22V0.914062H261.69V15.0815L249.256 14.9672Z" fill="white"/>
<path d="M301.16 79.8632H290.437L288.497 98.1437H275.265L287.129 0.799805H304.582L317.244 98.1437H302.985L301.16 79.8632ZM299.563 65.353L295.684 29.3632L291.92 65.353H299.563Z" fill="white"/>
<path d="M332.986 0.914062L345.649 53.1279V0.914062H359.11V98.2579H347.132L332.986 42.2738V98.2579H319.64V0.914062H332.986Z" fill="white"/>
<path d="M364.585 0.914062H387.286C399.948 0.914062 403.827 8.11203 403.827 19.6516V78.9491C403.827 90.8315 399.378 98.2579 387.286 98.2579H364.699V0.914062H364.585ZM379.415 84.0905H382.951C387.4 84.0905 388.655 81.6912 388.655 76.5498V21.7082C388.655 16.1098 387.172 14.1675 383.522 14.1675H379.301V84.0905H379.415Z" fill="white"/>
<path d="M0 103.285H22.587C35.2494 103.285 39.1279 110.483 39.1279 122.023V181.32C39.1279 193.203 34.679 200.629 22.587 200.629H0V103.285ZM14.7158 186.576H18.2521C22.7011 186.576 23.9559 184.177 23.9559 179.035V124.194C23.9559 118.595 22.4729 116.653 18.8225 116.653H14.6017V186.576H14.7158Z" fill="white"/>
<path d="M78.0283 103.285V117.453H59.2058V142.931H73.9216V157.67H59.2058V185.776H78.8268V200.515H44.376V103.285H78.0283Z" fill="white"/>
<path d="M102.326 201.657H99.4741C87.7243 201.657 81.4502 195.259 81.4502 183.262V163.725H96.0519V180.749C96.0519 185.205 97.5349 187.604 100.843 187.604C104.379 187.604 105.634 185.205 105.634 179.264V177.093C105.634 170.123 104.95 167.724 99.5882 160.755L90.234 148.758C83.9599 140.646 82.1346 134.362 82.1346 124.651V121.566C82.1346 108.655 88.637 102.6 100.273 102.6H103.01C115.217 102.6 119.894 107.97 119.894 119.509V135.505H105.634V121.451C105.634 118.138 104.95 115.739 101.413 115.739C97.8771 115.739 97.0786 117.91 97.0786 122.594V124.422C97.0786 129.906 98.1052 132.877 103.125 139.389L112.479 151.5C119.095 160.183 121.263 165.096 121.263 176.065V179.149C121.377 193.203 115.217 201.657 102.326 201.657Z" fill="white"/>
<path d="M140.312 200.629H125.597V103.285H140.312V200.629Z" fill="white"/>
<path d="M159.478 202C150.809 202 145.333 194.231 145.333 184.177V123.279C145.333 112.425 149.554 102.371 163.471 102.371H166.323C182.179 102.371 184.005 112.654 184.005 124.193V134.134H169.631V123.165C169.631 118.824 168.604 116.539 164.954 116.539C161.874 116.539 160.391 118.938 160.391 123.165V180.063C160.391 184.634 162.216 187.033 165.182 187.033C168.947 187.033 170.658 184.405 170.658 180.749V156.413H164.041V141.446H184.689V200.629H176.362C176.248 200.058 175.107 195.259 173.852 191.032C172.825 194.345 167.806 201.886 160.391 201.886H159.478V202Z" fill="white"/>
<path d="M203.169 103.285L215.832 155.499V103.285H229.292V200.629H217.315L203.169 144.645V200.629H189.822V103.285H203.169Z" fill="white"/>
<path d="M267.849 201.657H264.998C253.248 201.657 246.974 195.259 246.974 183.262V163.725H261.575V180.749C261.575 185.205 263.058 187.604 266.366 187.604C269.903 187.604 271.158 185.205 271.158 179.264V177.093C271.158 170.123 270.473 167.724 265.112 160.755L255.757 148.758C249.483 140.646 247.658 134.362 247.658 124.651V121.566C247.658 108.655 254.16 102.6 265.796 102.6H268.534C280.626 102.6 285.417 107.97 285.417 119.509V135.505H271.158V121.451C271.158 118.138 270.473 115.739 266.937 115.739C263.401 115.739 262.602 117.91 262.602 122.594V124.422C262.602 129.906 263.629 132.877 268.648 139.389L278.002 151.5C284.619 160.183 286.786 165.096 286.786 176.065V179.149C286.9 193.203 280.74 201.657 267.849 201.657Z" fill="white"/>
<path d="M315.191 180.863V158.241H329.679V180.749C329.679 191.26 326.256 201.772 311.997 201.772H308.689C293.745 201.772 290.551 191.032 290.551 181.206V121.794C290.551 111.854 294.886 102.257 308.233 102.257H311.655C327.854 102.257 329.679 112.997 329.679 122.48V139.846H315.191V122.708C315.191 118.481 313.936 116.31 310.172 116.31C306.521 116.31 305.609 118.367 305.609 122.708V180.52C305.609 184.862 307.092 187.147 310.286 187.147C313.936 187.49 315.191 184.862 315.191 180.863Z" fill="white"/>
<path d="M359.224 157.898H349.185V200.629H334.47V103.285H349.185V142.246H359.224V103.285H373.94V200.629H359.224V157.898Z" fill="white"/>
<path d="M419.456 178.921C419.456 192.517 414.893 201.772 400.634 201.772H398.124C383.979 201.772 379.073 192.517 379.073 178.921V124.765C379.073 111.283 384.207 102.371 398.01 102.371H400.519C414.893 102.371 419.456 111.283 419.456 124.651V178.921ZM404.398 123.965C404.398 118.824 402.687 116.539 399.265 116.539C395.5 116.539 394.017 119.052 394.017 123.965V179.949C394.017 184.177 395.158 187.376 399.379 187.376C403.257 187.376 404.398 184.062 404.398 179.949V123.965Z" fill="white"/>
<path d="M464.516 178.921C464.516 192.517 459.953 201.772 445.693 201.772H443.183C429.038 201.772 424.133 192.517 424.133 178.921V124.765C424.133 111.283 429.266 102.371 443.069 102.371H445.579C459.953 102.371 464.516 111.283 464.516 124.651V178.921ZM449.458 123.965C449.458 118.824 447.746 116.539 444.324 116.539C440.56 116.539 439.077 119.052 439.077 123.965V179.949C439.077 184.177 440.217 187.376 444.438 187.376C448.317 187.376 449.458 184.062 449.458 179.949V123.965Z" fill="white"/>
<path d="M484.365 103.285V185.548H502.389V200.629H469.649V103.285H484.365Z" fill="white"/>
<path fill-rule="evenodd" clip-rule="evenodd" d="M523.036 102.257C512.085 102.257 503.073 111.169 503.073 122.251C503.073 133.22 511.971 142.246 523.036 142.246C534.102 142.246 543 133.334 543 122.251C542.886 111.169 533.988 102.257 523.036 102.257Z" fill="white"/>
<path fill-rule="evenodd" clip-rule="evenodd" d="M526.345 120.423C527.599 119.852 528.398 119.052 528.968 118.481C529.995 117.339 530.337 115.967 530.337 114.596C530.337 113.568 529.995 111.397 528.17 109.912C526.915 108.884 525.774 108.427 523.036 108.427H521.667H521.553H515.85V135.162H531.934V130.021C532.048 125.108 530.451 121.794 526.345 120.423ZM528.398 133.677H525.432V124.765H522.124V133.677H519.614V109.684H522.238C523.264 109.684 524.747 109.912 525.774 111.169C526.345 111.854 526.687 112.768 526.801 113.568H522.124V114.939H526.801C526.801 115.739 526.573 116.767 525.774 117.796C525.09 118.71 523.835 119.509 522.124 119.509V120.88C526.687 120.88 528.398 123.851 528.398 129.449V133.677Z" fill="black"/>
</g>
<defs>
<clipPath id="clip0_71_2">
<rect width="543" height="202" fill="white"/>
</clipPath>
</defs>
</svg>
