<svg width="114" height="396" viewBox="0 0 114 396" fill="none" xmlns="http://www.w3.org/2000/svg">
<g clip-path="url(#clip0_115_2)">
<path d="M57.0039 247.336C62.9006 247.336 68.7395 246.085 74.1873 243.654C79.6352 241.223 84.5851 237.661 88.7547 233.169C92.9243 228.678 96.2318 223.346 98.4883 217.478C100.745 211.61 101.906 205.32 101.906 198.969L101.906 0.1587M57.0039 247.336C51.1073 247.336 45.2684 246.085 39.8205 243.654C34.3727 241.223 29.4227 237.661 25.2532 233.169C21.0836 228.678 17.7761 223.346 15.5195 217.478C13.263 211.61 12.1016 205.32 12.1016 198.969L12.1016 0.158691M57.0039 247.336L57.0039 462.33" stroke="white" stroke-width="27"/>
</g>
<defs>
<clipPath id="clip0_115_2">
<rect width="114" height="396" fill="white"/>
</clipPath>
</defs>
</svg>
