<svg width="1467" height="105" viewBox="0 0 1467 105" fill="none" xmlns="http://www.w3.org/2000/svg">
<path fill-rule="evenodd" clip-rule="evenodd" d="M345.438 11.5192C346.439 12.9326 352.643 30.5 359.247 50.4903C366.052 70.4807 372.256 88.4519 373.057 90.2692C374.658 93.7019 369.454 98.3461 360.849 100.769C357.046 101.981 356.245 100.971 353.444 90.875C350.441 80.7788 349.241 79.1634 339.634 73.7115C334.03 70.2788 327.826 67.8557 326.225 68.2596C324.424 68.4615 322.422 72.298 321.422 77.3461C320.021 84.4134 318.02 87.2403 310.815 92.2884C305.811 95.5192 301.608 97.9423 301.008 97.5384C300.207 96.5288 322.022 16.9711 326.025 6.47111L328.226 0.817261L336.032 5.05764C340.435 7.2788 344.638 10.1057 345.438 11.5192ZM331.429 42.2115C333.23 36.7596 335.031 31.1057 335.431 29.4903C335.832 27.8749 336.832 27.2692 337.433 27.875C339.234 29.4903 346.239 60.3846 345.038 61.3942C344.237 62.4038 330.428 55.3365 329.027 53.3173C328.627 52.5096 329.627 47.6634 331.429 42.2115Z" fill="white"/>
<path fill-rule="evenodd" clip-rule="evenodd" d="M269.186 5.05764C277.792 10.3076 289.6 26.0576 292.602 35.75C295.404 45.0384 292.202 58.3653 286.198 62.2019C280.794 65.4326 281.195 68.4615 289 85.423C293.003 93.7019 295.204 100.365 294.003 100.971C293.003 101.779 289 101.173 285.197 99.9615C279.193 97.9423 277.792 96.125 272.389 81.1826C264.383 59.7788 263.583 58.5673 257.979 58.5673C253.376 58.5673 253.176 59.375 252.575 72.9038L252.573 72.9516C251.975 87.2408 251.966 87.4481 244.169 92.6923C239.766 95.5192 235.764 97.9423 235.163 97.9423C234.563 97.9423 234.163 78.5576 234.163 54.9326V11.7211L243.769 6.47111C255.177 0.00956821 260.581 -0.192355 269.186 5.05764ZM252.175 30.298C252.175 23.4326 252.775 17.173 253.576 16.5673C258.779 11.1153 273.389 21.8173 275.391 32.5192C277.192 42.8173 273.589 45.8461 261.581 44.2307L252.175 42.8173V30.298Z" fill="white"/>
<path d="M217.151 46.6538C217.151 79.3653 216.951 80.173 212.348 84.0096C209.746 86.2307 204.543 87.8461 200.34 87.8461C196.337 87.8461 187.531 89.8653 180.526 92.2884C166.917 97.3365 164.515 96.7307 157.311 87.0384C153.508 82.1923 153.108 77.9519 152.507 48.875L151.707 16.1634L160.913 13.9423L170.119 11.923V40.5961C170.119 56.3461 170.72 70.6826 171.32 72.5C173.722 78.9615 193.735 73.9134 197.938 66.0384C199.339 63.6153 200.14 49.6826 200.14 32.3173V2.83649L208.745 7.88457L217.151 13.1346V46.6538Z" fill="white"/>
<path d="M135.696 4.24995C138.698 6.47111 140.099 9.29803 140.099 14.3461C140.099 20.6057 139.699 21.2115 136.296 19.1923C130.092 15.9615 120.285 16.7692 111.88 21.6153C104.475 25.6538 104.074 26.6634 104.074 35.3461V44.8365L113.481 39.9903C126.29 33.5288 131.093 34.3365 131.093 43.2211C131.093 49.4807 130.492 50.0865 124.688 50.4903C121.286 50.6923 115.082 52.9134 111.279 55.5384C104.475 59.5769 104.074 60.5865 104.074 70.6826V81.5865L112.68 76.7403C127.09 68.2596 138.098 71.4903 140.299 84.6153C141.5 91.6826 141.3 92.0865 137.297 90.875C125.089 86.8365 121.486 87.4423 107.277 94.7115C85.2617 106.221 86.0622 107.433 86.0622 56.75V14.1442L92.8669 13.9423C97.0697 13.9423 103.674 11.3173 109.478 7.48072C120.085 0.413415 128.891 -0.596201 135.696 4.24995Z" fill="white"/>
<path d="M67.6498 44.8365L68.05 87.8461H60.0446C53.0399 87.8461 50.6382 86.4326 39.4306 75.3269C32.4259 68.2596 24.8207 58.9711 22.6192 54.7307L18.6165 46.8557L17.2156 61.3942C16.415 69.4711 16.415 80.9807 17.0154 87.0384C17.816 92.8942 17.816 97.9423 17.2156 97.9423C16.415 97.9423 12.2122 95.923 8.00933 93.5L0.00390625 88.8557V45.8461C0.00390625 22.423 0.604313 3.03841 1.20472 3.03841C5.20743 3.03841 14.6138 12.9326 20.2176 22.8269C26.8221 34.1346 45.0344 55.5384 48.2366 55.5384C49.2373 55.5384 50.0378 43.8269 50.0378 29.6923C50.0378 15.3557 50.6382 3.03841 51.4388 2.23072C52.2393 1.42303 56.0419 1.01918 60.0446 1.42303L67.0494 2.0288L67.6498 44.8365Z" fill="white"/>
<path d="M398.874 3.44226C401.676 5.66341 402.277 11.1153 402.677 41.4038L403.277 76.5384L411.283 81.1826C417.487 85.0192 421.089 85.625 427.894 84.8173L436.3 83.6057V90.673C436.3 96.7307 435.499 97.9423 429.695 99.7596C422.09 102.385 419.088 101.577 406.079 93.5C401.076 90.4711 394.071 87.8461 390.469 87.8461H384.264V1.01918H389.868C393.07 1.01918 397.073 2.23072 398.874 3.44226Z" fill="white"/>
<path d="M522.358 8.08649C522.358 13.9423 521.357 15.5576 517.355 17.173C514.553 18.1826 508.949 21.4134 504.746 24.2403C500.743 27.0673 494.939 29.2884 491.937 29.2884C486.534 29.2884 486.334 29.6923 486.334 40.3942C486.334 54.3269 488.935 55.7403 502.344 48.673C507.748 45.8461 512.752 43.423 513.352 43.423C513.952 43.423 514.353 46.048 514.353 49.4807C514.353 54.125 512.752 56.548 506.747 60.5865C502.745 63.2115 496.34 66.0384 492.738 66.8461L486.334 68.0576V84.0096C486.334 92.8942 485.733 99.9615 485.133 99.9615C484.332 99.9615 480.33 97.9423 476.127 95.5192L468.321 91.0769V5.25957L477.928 10.3076C489.136 16.3653 493.939 15.7596 507.548 7.07688C520.157 -0.798123 522.358 -0.798123 522.358 8.08649Z" fill="white"/>
<path d="M587.202 8.49034C586.401 12.7307 585.801 16.1634 585.601 16.3653C575.994 22.423 561.184 29.2884 557.382 29.2884C552.779 29.2884 552.378 29.8942 552.378 39.3846C552.378 48.4711 552.779 49.4807 556.982 49.4807C559.383 49.4807 564.987 47.2596 569.39 44.4326C573.793 41.8076 577.996 39.3846 578.996 39.3846C581.998 39.3846 580.397 50.8942 576.995 53.923C571.591 58.5673 561.184 63.6153 556.381 63.6153C552.779 63.6153 552.378 64.8269 552.378 74.7211C552.378 84.6153 552.779 85.8269 556.581 85.8269C558.783 85.8269 566.388 82.5961 573.192 78.7596C580.197 74.923 586.401 72.298 587.002 73.1057C587.802 73.7115 588.403 77.1442 588.403 80.5769C588.203 86.4326 587.002 87.4423 572.392 94.7115L556.381 102.385L545.374 96.9326L534.366 91.6826V48.2692C534.366 24.4423 534.967 5.05764 535.567 5.05764C536.167 5.05764 539.57 7.07688 542.972 9.49995C551.978 15.9615 561.585 15.3557 573.593 7.48072C586.802 -1.20197 589.003 -1.00005 587.202 8.49034Z" fill="white"/>
<path d="M616.021 100.769C616.095 100.809 616.159 100.849 616.212 100.888C618.124 102.037 622.737 103.743 627.429 102.183C638.237 97.7403 652.446 76.3365 652.446 64.423C652.446 54.125 648.043 50.0865 635.435 49.0769C624.027 48.0673 619.824 45.6442 617.623 38.375C615.821 31.9134 619.224 28.8846 629.23 27.875C637.036 26.8653 639.437 25.4519 644.641 18.9903C650.045 12.125 650.445 10.9134 647.443 9.70188C645.441 9.09611 638.237 9.49995 631.232 10.9134C624.427 12.3269 616.022 12.9326 612.619 12.125C603.413 10.1057 597.609 16.9711 599.21 27.673C601.612 43.2211 612.419 59.5769 624.427 65.6346C634.234 70.6826 635.435 72.7019 632.433 79.7692C628.03 90.673 616.622 89.4615 609.617 77.75C607.015 72.9038 605.414 72.0961 602.012 73.5096C599.61 74.3173 597.409 75.9326 597.009 77.1442C596.008 80.173 609.817 97.5384 616.021 100.769Z" fill="white"/>
<path d="M673.26 8.08649C680.265 11.923 687.27 15.1538 688.871 15.1538C690.472 15.1538 697.076 12.3269 703.281 9.09611C712.687 3.84611 714.688 3.44226 715.689 6.06726C718.091 12.125 714.688 18.1826 705.882 23.0288L697.076 27.875L695.876 54.7307C695.075 69.4711 695.075 85.625 695.675 90.4711C696.876 98.3461 696.476 99.7596 693.074 100.769C690.872 101.577 686.669 101.173 683.667 100.163L678.464 97.9423V27.4711L672.66 23.4326C669.658 21.2115 664.655 18.3846 661.652 17.173C657.45 15.5576 656.449 13.9423 656.449 8.08649C656.449 4.24995 657.45 1.01918 658.65 1.01918C659.851 1.01918 666.456 4.24995 673.26 8.08649Z" fill="white"/>
<path d="M818.159 44.8365L818.559 87.8461H811.354C801.948 87.8461 786.737 75.3269 776.13 58.7692L768.525 46.8557V72.298C768.525 86.4326 768.125 97.9423 767.324 97.9423C766.724 97.9423 762.721 95.923 758.518 93.5L750.513 88.8557V45.8461C750.513 22.423 751.113 3.03841 751.714 3.03841C756.717 3.03841 765.723 11.923 771.127 22.2211C774.729 28.8846 782.534 39.3846 788.538 45.4423L799.546 56.548L800.146 31.3076C800.346 17.375 800.947 4.85572 801.547 3.44226C802.148 1.62495 805.15 1.01918 809.953 1.42303L817.558 2.0288L818.159 44.8365Z" fill="white"/>
<path d="M885.604 3.44226C889.407 5.25957 890.608 7.2788 890.608 12.3269V18.9903L880.801 17.7788C872.796 16.9711 869.393 17.5769 862.789 21.4134C855.184 25.6538 854.583 26.6634 854.583 34.7403C854.583 39.5865 855.184 43.423 855.984 43.423C856.785 43.423 861.188 41.6057 865.991 39.1826C877.599 33.5288 881.602 34.5384 881.602 43.2211C881.602 49.2788 881.001 50.0865 875.197 50.6923C871.795 51.0961 865.791 53.3173 861.788 55.7403C854.984 59.7788 854.583 60.5865 854.583 69.875C854.583 75.3269 855.384 79.7692 856.384 79.7692C857.585 79.7692 861.588 77.75 865.591 75.5288C870.594 72.5 874.597 71.4903 879 72.5C887.806 74.3173 890.608 77.3461 890.608 85.2211C890.608 91.2788 890.007 92.0865 887.205 90.875C877.399 86.6346 871.995 87.4423 857.785 94.7115C835.971 106.019 836.571 107.231 836.571 57.3557V15.1538H841.174C845.377 15.1538 848.979 13.5384 865.591 4.45188C872.595 0.413414 878.599 0.211491 885.604 3.44226Z" fill="white"/>
<path d="M967.66 46.048C967.66 84.8173 966.459 87.8461 951.849 87.8461C947.246 88.048 940.041 89.4615 935.638 91.0769C921.429 96.7307 916.825 96.9326 911.422 91.6826C904.417 85.0192 902.616 75.9326 902.616 44.4326V16.1634L911.622 13.9423L920.628 11.923V40.5961C920.628 56.3461 921.228 70.6826 921.829 72.5C924.431 79.3653 944.044 74.3173 948.647 65.8365C949.648 63.6153 950.648 48.673 950.648 32.3173V2.63457L959.254 7.68265L967.66 12.7307V46.048Z" fill="white"/>
<path fill-rule="evenodd" clip-rule="evenodd" d="M1019.7 5.05764C1028.3 10.3076 1040.11 26.0576 1043.11 35.75C1045.91 45.0384 1042.71 58.3653 1036.71 62.2019C1031.3 65.4326 1031.7 68.4615 1039.51 85.423C1043.51 93.7019 1045.71 100.365 1044.51 100.971C1043.51 101.779 1039.51 101.173 1035.71 99.9615C1029.7 97.9423 1028.3 96.125 1022.9 81.1826C1014.89 59.7788 1014.09 58.5673 1008.49 58.5673C1003.88 58.5673 1003.68 59.375 1003.08 72.9038L1003.08 72.9516C1002.48 87.2408 1002.47 87.4481 994.678 92.6923C990.275 95.5192 986.273 97.9423 985.672 97.9423C985.072 97.9423 984.671 78.5576 984.671 54.9326V11.7211L994.278 6.47111C1005.69 0.00956821 1011.09 -0.192355 1019.7 5.05764ZM1002.68 30.298C1002.68 23.4326 1003.28 17.173 1004.08 16.5673C1009.49 10.9134 1024.3 22.423 1025.9 33.3269C1027.3 44.0288 1025.1 45.8461 1013.09 44.2307L1002.68 42.8173V30.298Z" fill="white"/>
<path fill-rule="evenodd" clip-rule="evenodd" d="M1096.15 11.5192C1097.15 12.9326 1100.55 22.2211 1103.55 32.3173C1106.55 42.2115 1112.56 60.1826 1116.96 71.8942C1121.16 83.8076 1124.77 93.9038 1124.77 94.5096C1124.77 95.3173 1109.96 101.981 1107.75 101.981C1107.35 101.981 1105.55 97.1346 1103.75 91.0769C1101.15 82.3942 1099.15 79.1634 1092.74 74.923C1082.94 68.4615 1075.13 66.2403 1073.93 69.875C1073.33 71.4903 1071.93 76.3365 1070.93 80.9807C1068.93 88.8557 1066.53 90.875 1051.92 97.5384C1051.12 98.1442 1050.72 96.7307 1051.32 94.7115C1051.92 92.4903 1057.32 73.1057 1063.32 51.5C1069.53 29.8942 1075.33 9.70188 1076.53 6.47111L1078.74 0.817261L1086.34 4.85572C1090.54 7.07688 1094.95 9.9038 1096.15 11.5192ZM1082.74 38.9807C1084.14 34.1346 1085.54 29.6923 1086.14 28.6826C1087.74 26.0576 1088.34 27.2692 1091.74 41.8077C1093.55 49.8846 1095.55 58.1634 1095.95 59.9807C1096.75 62.8076 1095.35 62.6057 1087.74 58.1634C1082.14 55.1346 1078.94 51.9038 1079.54 50.2884C1080.14 48.875 1081.54 43.8269 1082.74 38.9807Z" fill="white"/>
<path d="M1149.58 2.23072C1152.39 3.24034 1152.79 8.49034 1152.79 39.5865V75.5288L1161.79 80.9807C1168.8 85.0192 1172.6 86.0288 1177.8 85.2211C1184.61 84.0096 1184.81 84.2115 1184.81 91.0769C1184.81 96.7307 1183.81 98.3461 1179.4 100.163C1174.6 102.183 1172 101.577 1160.39 95.1153C1152.99 91.0769 1144.18 87.8461 1140.78 87.8461H1134.77V1.01918H1140.58C1143.78 1.01918 1147.78 1.62495 1149.58 2.23072Z" fill="white"/>
<path d="M1272.87 7.88457C1272.87 14.3461 1271.87 15.3557 1260.06 22.0192C1253.05 26.0576 1244.85 29.2884 1242.05 29.2884C1237.04 29.2884 1236.84 29.6923 1236.84 40.3942C1236.84 54.7307 1240.04 56.3461 1253.25 48.875C1258.46 45.8461 1263.26 43.423 1263.86 43.423C1264.46 43.423 1264.86 46.4519 1264.86 50.0865C1264.86 56.3461 1263.86 57.3557 1254.25 62.2019C1248.45 65.2307 1242.25 67.6538 1240.24 67.6538C1237.24 67.6538 1236.84 69.875 1236.84 83.8076C1236.84 92.6923 1236.24 99.9615 1235.64 99.9615C1234.84 99.9615 1230.84 97.9423 1226.64 95.5192L1218.83 91.0769V5.05764L1228.84 10.3076C1240.44 16.3653 1245.65 15.7596 1258.86 7.07688C1270.47 -0.798123 1272.87 -0.596201 1272.87 7.88457Z" fill="white"/>
<path d="M1336.91 8.49034C1336.91 15.7596 1336.11 16.5673 1325.1 22.625C1318.5 26.2596 1310.89 29.2884 1308.09 29.2884C1303.29 29.2884 1302.89 29.8942 1302.89 38.375C1302.89 50.0865 1306.29 51.7019 1318.7 45.2403C1323.7 42.6153 1328.5 40.1923 1329.51 39.7884C1331.31 38.7788 1331.31 49.6826 1329.31 52.7115C1327.1 56.3461 1312.29 63.6153 1307.49 63.6153C1303.29 63.6153 1302.89 64.625 1302.89 74.7211C1302.89 84.8173 1303.29 85.8269 1307.29 85.8269C1309.49 85.8269 1317.1 82.5961 1324.1 78.7596C1330.91 74.923 1337.11 71.6923 1337.71 71.6923C1338.31 71.6923 1338.91 75.3269 1338.91 79.7692C1338.91 85.0192 1338.11 87.8461 1336.31 87.8461C1334.91 87.8461 1329.51 90.4711 1324.5 93.7019C1310.49 102.788 1307.89 102.99 1295.68 96.9326L1284.88 91.6826V48.2692C1284.88 24.4423 1285.48 5.05764 1286.08 5.05764C1286.68 5.05764 1289.68 6.87495 1292.68 8.89418C1303.89 16.9711 1309.69 16.3653 1328.9 5.05764C1332.71 2.83649 1336.11 1.01918 1336.31 1.01918C1336.71 1.01918 1336.91 4.45188 1336.91 8.49034Z" fill="white"/>
<path d="M1423.77 8.08649C1430.77 11.923 1437.98 15.1538 1439.98 15.1538C1441.98 15.1538 1448.39 12.3269 1454.39 9.09611C1460.19 5.66341 1465.4 3.03841 1466 3.03841C1466.6 3.03841 1467 6.06726 1467 9.9038C1467 16.1634 1466 17.5769 1456.99 22.625L1446.98 28.2788V64.0192C1446.98 97.1346 1446.78 99.7596 1443.18 100.971C1441.18 101.577 1437.18 101.173 1434.18 100.163L1428.97 97.9423V27.4711L1423.17 23.4326C1420.17 21.2115 1415.16 18.3846 1412.16 17.173C1407.96 15.5576 1406.96 13.9423 1406.96 8.08649C1406.96 4.24995 1407.96 1.01918 1409.16 1.01918C1410.36 1.01918 1416.96 4.24995 1423.77 8.08649Z" fill="white"/>
<path d="M1366.73 100.971C1366.96 101.09 1367.06 101.204 1367.01 101.314C1368.74 103.348 1372.53 106.291 1375.94 104L1381.94 99.9615C1390.35 94.5096 1401.15 77.75 1402.35 67.8557C1403.96 55.9423 1399.35 49.4807 1388.95 49.4807C1378.54 49.4807 1371.93 46.25 1368.93 39.7884C1366.93 35.1442 1367.13 33.9326 1370.93 30.9038C1373.54 28.8846 1378.74 27.2692 1382.94 27.2692C1389.55 27.2692 1391.15 26.2596 1395.75 19.1923C1400.35 12.3269 1400.55 10.9134 1397.95 9.9038C1396.15 9.09611 1391.35 9.29803 1387.34 10.1057C1383.34 11.1153 1374.14 11.923 1367.13 12.125C1357.12 12.3269 1353.92 13.1346 1351.72 16.1634C1343.71 27.0673 1356.72 54.125 1375.14 65.6346C1380.54 68.8653 1384.94 72.5 1384.94 73.5096C1384.94 78.7596 1379.74 86.0288 1375.14 87.2403C1371.13 88.2499 1368.93 87.0384 1362.93 80.375C1357.12 73.7115 1355.12 72.5 1351.32 73.9134C1348.92 74.923 1346.92 76.1346 1346.92 76.9423C1346.92 80.173 1361.93 98.3461 1366.73 100.971Z" fill="white"/>
</svg>
